<svg width="24" height="18" viewBox="0 0 24 18" fill="none" xmlns="http://www.w3.org/2000/svg">
<path d="M17.8432 0C15.7345 0 13.4635 0.432562 11.8955 1.62211C10.3274 0.432562 8.05647 0 5.94773 0C4.37969 0 2.71433 0.237909 1.31932 0.854311C0.529889 1.21117 0 1.97897 0 2.85491V15.0532C0 16.459 1.31932 17.4971 2.68189 17.1511C3.74166 16.8807 4.86633 16.7618 5.94773 16.7618C7.63472 16.7618 9.42986 17.043 10.8789 17.7567C11.5278 18.0811 12.2631 18.0811 12.9012 17.7567C14.3503 17.0321 16.1454 16.7618 17.8324 16.7618C18.9138 16.7618 20.0384 16.8807 21.0982 17.1511C22.4608 17.508 23.7801 16.4698 23.7801 15.0532V2.85491C23.7801 1.97897 23.2502 1.21117 22.4608 0.854311C21.0766 0.237909 19.4112 0 17.8432 0ZM21.6281 13.7663C21.6281 14.4476 21.0009 14.945 20.3304 14.8261C19.5194 14.6747 18.6759 14.6098 17.8432 14.6098C16.0048 14.6098 13.3554 15.3127 11.8955 16.2319V3.78492C13.3554 2.86573 16.0048 2.16281 17.8432 2.16281C18.8381 2.16281 19.8222 2.26014 20.763 2.46561C21.2604 2.57375 21.6281 3.01712 21.6281 3.52538V13.7663Z" fill="url(#paint0_linear_53_839)"/>
<path d="M11.0367 7.03998C10.6906 7.03998 10.377 6.8237 10.2689 6.47765C10.1283 6.0559 10.3662 5.5909 10.788 5.46113C12.4533 4.92043 14.6053 4.7474 16.5843 4.9745C17.0277 5.02857 17.3521 5.42869 17.298 5.87207C17.244 6.31544 16.8438 6.63986 16.4005 6.58579C14.6486 6.38033 12.7345 6.54254 11.2854 7.00754C11.1989 7.01835 11.1124 7.03998 11.0367 7.03998Z" fill="url(#paint1_linear_53_839)"/>
<path d="M11.0367 9.91645C10.6906 9.91645 10.377 9.70017 10.2689 9.35412C10.1283 8.93237 10.3662 8.46736 10.788 8.3376C12.4425 7.79689 14.6053 7.62387 16.5843 7.85096C17.0277 7.90503 17.3521 8.30515 17.298 8.74853C17.244 9.19191 16.8438 9.51633 16.4005 9.46226C14.6486 9.25679 12.7345 9.419 11.2854 9.88401C11.1989 9.90563 11.1124 9.91645 11.0367 9.91645Z" fill="url(#paint2_linear_53_839)"/>
<path d="M11.0367 12.793C10.6906 12.793 10.377 12.5768 10.2689 12.2307C10.1283 11.809 10.3662 11.344 10.788 11.2142C12.4425 10.6735 14.6053 10.5005 16.5843 10.7276C17.0277 10.7816 17.3521 11.1817 17.298 11.6251C17.244 12.0685 16.8438 12.3821 16.4005 12.3388C14.6486 12.1334 12.7345 12.2956 11.2854 12.7606C11.1989 12.7822 11.1124 12.793 11.0367 12.793Z" fill="url(#paint3_linear_53_839)"/>
<defs>
<linearGradient id="paint0_linear_53_839" x1="11.8901" y1="0" x2="11.8901" y2="18" gradientUnits="userSpaceOnUse">
<stop stop-color="#A715ED"/>
<stop offset="1" stop-color="#8505C1"/>
</linearGradient>
<linearGradient id="paint1_linear_53_839" x1="13.7662" y1="4.87708" x2="13.7662" y2="7.03998" gradientUnits="userSpaceOnUse">
<stop stop-color="#A715ED"/>
<stop offset="1" stop-color="#8505C1"/>
</linearGradient>
<linearGradient id="paint2_linear_53_839" x1="13.7662" y1="7.75354" x2="13.7662" y2="9.91645" gradientUnits="userSpaceOnUse">
<stop stop-color="#A715ED"/>
<stop offset="1" stop-color="#8505C1"/>
</linearGradient>
<linearGradient id="paint3_linear_53_839" x1="13.7662" y1="10.6301" x2="13.7662" y2="12.793" gradientUnits="userSpaceOnUse">
<stop stop-color="#A715ED"/>
<stop offset="1" stop-color="#8505C1"/>
</linearGradient>
</defs>
</svg>
