<svg width="30" height="31" viewBox="0 0 30 31" fill="none" xmlns="http://www.w3.org/2000/svg">
<path d="M10.2985 30.0011C10.7622 29.7964 11.087 29.3233 11.087 28.7726V25.1593C11.087 25.0275 11.0974 24.8903 11.1137 24.7511C11.1046 24.7538 11.0961 24.7558 11.087 24.7578C11.087 24.7578 9.13043 24.7578 8.73913 24.7578C7.76087 24.7578 6.91304 24.3563 6.52174 23.5534C6.06522 22.6835 5.86957 21.2114 4.69565 20.4085C4.5 20.2747 4.63043 20.0739 5.02174 20.0739C5.41304 20.1408 6.26087 20.6761 6.78261 21.4122C7.36957 22.1482 7.95652 22.7504 9 22.7504C10.622 22.7504 11.4913 22.6668 12.0143 22.3791C12.6235 21.4496 13.4667 20.743 14.3478 20.743V20.7263C10.6513 20.6045 8.28978 19.3439 7.19022 17.3974C4.8 17.4255 2.71891 17.6684 1.5313 17.8705C1.49348 17.6517 1.46087 17.4315 1.43283 17.21C2.60478 17.012 4.5913 16.7771 6.87522 16.7323C6.80217 16.5476 6.73891 16.3582 6.68544 16.1642C4.39565 16.0451 2.41957 16.1381 1.34609 16.2291C1.33304 16.0069 1.31543 15.7855 1.31283 15.5606C2.38826 15.4703 4.31087 15.38 6.54196 15.4864C6.49044 15.1518 6.45717 14.8099 6.45717 14.4539C6.45717 13.3164 6.84848 12.1119 7.56587 11.1082C7.23978 9.97071 6.78326 7.56184 7.6963 6.69197C9.45717 6.69197 10.6963 7.56184 11.2833 8.09715C12.3913 7.62809 13.6304 7.36043 15 7.36043C16.3696 7.36043 17.6087 7.62809 18.6522 8.09648C19.2391 7.56117 20.4783 6.6913 22.2391 6.6913C23.2174 7.62809 22.6957 10.037 22.3696 11.1076C23.087 12.1113 23.4783 13.2488 23.413 14.4532C23.413 14.7771 23.3837 15.0896 23.3413 15.396C25.6233 15.2809 27.598 15.3733 28.6917 15.4643C28.6904 15.6898 28.6702 15.9099 28.6585 16.1327C27.5687 16.0404 25.5443 15.9454 23.207 16.0732C23.1489 16.298 23.0785 16.5168 22.995 16.7289C25.3076 16.7597 27.3417 16.9892 28.5698 17.19C28.5417 17.4121 28.5091 17.6323 28.4713 17.8504C27.2243 17.6456 25.0989 17.4061 22.6807 17.394C21.5948 19.3198 19.2763 20.5758 15.6522 20.7223V20.743C17.3478 20.743 18.913 23.3527 18.913 25.1593V28.7726C18.913 29.3233 19.2378 29.7964 19.7015 30.0011C25.6761 27.9723 30 22.191 30 15.39C30 6.90409 23.2715 0 15 0C6.72848 0 0 6.90409 0 15.39C0 22.191 4.32391 27.9723 10.2985 30.0011Z" fill="#E6E6E6"/>
</svg>
