<svg width="20" height="18" viewBox="0 0 20 18" fill="none" xmlns="http://www.w3.org/2000/svg">
<path d="M10.485 12.303C10.611 11.979 10.53 11.61 10.278 11.358L8.397 9.504L8.424 9.477C9.99 7.731 11.106 5.724 11.763 3.6H13.509C13.995 3.6 14.4 3.195 14.4 2.709V2.691C14.4 2.205 13.995 1.8 13.509 1.8H8.1V0.9C8.1 0.405 7.695 0 7.2 0C6.705 0 6.3 0.405 6.3 0.9V1.8H0.891C0.405 1.8 0 2.205 0 2.691C0 3.186 0.405 3.582 0.891 3.582H10.053C9.45 5.328 8.496 6.975 7.2 8.415C6.471 7.614 5.859 6.741 5.346 5.823C5.202 5.562 4.941 5.4 4.644 5.4C4.023 5.4 3.627 6.075 3.933 6.615C4.5 7.632 5.193 8.604 6.003 9.504L2.07 13.383C1.71 13.734 1.71 14.31 2.07 14.661C2.421 15.012 2.988 15.012 3.348 14.661L7.2 10.8L9.018 12.618C9.477 13.077 10.26 12.906 10.485 12.303ZM14.85 7.2C14.31 7.2 13.824 7.533 13.635 8.046L10.332 16.866C10.116 17.415 10.53 18 11.115 18C11.466 18 11.781 17.784 11.907 17.451L12.708 15.3H16.983L17.793 17.451C17.919 17.775 18.234 18 18.585 18C19.17 18 19.584 17.415 19.377 16.866L16.074 8.046C15.876 7.533 15.39 7.2 14.85 7.2ZM13.392 13.5L14.85 9.603L16.308 13.5H13.392Z" fill="url(#paint0_linear_53_821)"/>
<defs>
<linearGradient id="paint0_linear_53_821" x1="9.71552" y1="0" x2="9.71552" y2="18" gradientUnits="userSpaceOnUse">
<stop stop-color="#A715ED"/>
<stop offset="1" stop-color="#8505C1"/>
</linearGradient>
</defs>
</svg>
