<svg width="30" height="30" viewBox="0 0 30 30" fill="none" xmlns="http://www.w3.org/2000/svg">
<path fill-rule="evenodd" clip-rule="evenodd" d="M3.40909 6.81818C5.29188 6.81818 6.81818 5.29188 6.81818 3.40909C6.81818 1.5263 5.29188 0 3.40909 0C1.5263 0 0 1.5263 0 3.40909C0 5.29188 1.5263 6.81818 3.40909 6.81818ZM6.81818 30V9.54545H0V30H6.81818ZM9.54545 9.54545H15.6818V12.1993C16.6589 10.9157 18.7443 9.54545 22.5 9.54545C28.405 9.54545 30 15.4369 30 19.0909V30H23.1818V19.0909C23.1818 17.7273 22.5 15 19.7727 15C17.8361 15 16.4725 16.3752 15.6818 17.6609V30H9.54545V9.54545Z" fill="#E6E6E6"/>
</svg>
