<svg width="137" height="50" viewBox="0 0 137 50" fill="none" xmlns="http://www.w3.org/2000/svg">
<path d="M7.74396 39.816C5.53596 39.816 3.80796 39.192 2.55996 37.944C1.34396 36.664 0.735962 34.856 0.735962 32.52V3.38399L8.31996 2.56799V32.232C8.31996 33.288 8.75196 33.816 9.61596 33.816C10.064 33.816 10.48 33.736 10.864 33.576L12.352 38.952C10.976 39.528 9.43996 39.816 7.74396 39.816Z" fill="#1A1A1A"/>
<path d="M36.73 39H30.154L29.818 35.784C27.962 38.472 25.386 39.816 22.09 39.816C19.754 39.816 17.978 39.112 16.762 37.704C15.578 36.296 14.986 34.328 14.986 31.8V13.512H22.57V30.84C22.57 32.088 22.762 32.968 23.146 33.48C23.562 33.96 24.186 34.2 25.018 34.2C26.618 34.2 27.994 33.208 29.146 31.224V13.512H36.73V39Z" fill="#1A1A1A"/>
<path d="M50.2787 13.512V39H42.6947V13.512H50.2787ZM46.4387 0.071991C47.7507 0.071991 48.8227 0.487991 49.6547 1.31999C50.5187 2.11999 50.9507 3.14399 50.9507 4.39199C50.9507 5.63999 50.5187 6.67999 49.6547 7.51199C48.8227 8.31199 47.7507 8.71199 46.4387 8.71199C45.1267 8.71199 44.0547 8.31199 43.2227 7.51199C42.3907 6.67999 41.9747 5.63999 41.9747 4.39199C41.9747 3.14399 42.3907 2.11999 43.2227 1.31999C44.0547 0.487991 45.1267 0.071991 46.4387 0.071991Z" fill="#1A1A1A"/>
<path d="M74.1936 13.512V18.84L62.6736 33.24H74.4336L73.7616 39H53.8896V33.624L65.4576 19.224H54.8976V13.512H74.1936Z" fill="#1A1A1A"/>
<path d="M75.862 26.904V21.048H91.174V26.904H75.862Z" fill="#1A1A1A"/>
<path d="M107.234 8.18399C106.146 8.18399 105.362 8.43999 104.882 8.95199C104.402 9.46399 104.162 10.328 104.162 11.544V13.512H110.162L109.346 18.792H104.162V39H96.5777V18.792H92.7377V13.512H96.5777V11.256C96.5777 8.69599 97.4097 6.61599 99.0737 5.01599C100.77 3.38399 103.186 2.56799 106.322 2.56799C108.85 2.56799 111.17 3.11199 113.282 4.19999L111.218 9.14399C109.938 8.50399 108.61 8.18399 107.234 8.18399Z" fill="#1A1A1A"/>
<path d="M136.151 15C134.487 15.672 132.039 16.008 128.807 16.008C130.471 16.712 131.687 17.576 132.455 18.6C133.223 19.624 133.607 20.952 133.607 22.584C133.607 24.216 133.175 25.688 132.311 27C131.447 28.28 130.199 29.288 128.567 30.024C126.967 30.76 125.079 31.128 122.903 31.128C121.879 31.128 120.903 31.032 119.975 30.84C119.719 30.968 119.511 31.176 119.351 31.464C119.223 31.72 119.159 31.992 119.159 32.28C119.159 32.76 119.335 33.144 119.687 33.432C120.071 33.688 120.823 33.816 121.943 33.816H125.783C127.735 33.816 129.447 34.136 130.919 34.776C132.391 35.416 133.527 36.296 134.327 37.416C135.127 38.536 135.527 39.8 135.527 41.208C135.527 43.864 134.375 45.928 132.071 47.4C129.799 48.904 126.503 49.656 122.183 49.656C119.079 49.656 116.631 49.32 114.839 48.648C113.047 48.008 111.783 47.096 111.047 45.912C110.343 44.728 109.991 43.24 109.991 41.448H116.807C116.807 42.216 116.951 42.824 117.239 43.272C117.559 43.72 118.119 44.056 118.919 44.28C119.719 44.504 120.871 44.616 122.375 44.616C124.455 44.616 125.895 44.36 126.695 43.848C127.495 43.368 127.895 42.664 127.895 41.736C127.895 40.968 127.591 40.36 126.983 39.912C126.375 39.464 125.463 39.24 124.247 39.24H120.551C117.927 39.24 115.959 38.776 114.647 37.848C113.367 36.888 112.727 35.672 112.727 34.2C112.727 33.272 112.999 32.376 113.543 31.512C114.087 30.616 114.823 29.88 115.751 29.304C114.151 28.44 112.983 27.432 112.247 26.28C111.543 25.096 111.191 23.672 111.191 22.008C111.191 19.16 112.215 16.904 114.263 15.24C116.311 13.544 119.015 12.696 122.375 12.696C124.935 12.76 127.095 12.504 128.855 11.928C130.647 11.352 132.487 10.504 134.375 9.38399L136.151 15ZM122.567 17.688C121.383 17.688 120.439 18.072 119.735 18.84C119.063 19.576 118.727 20.6 118.727 21.912C118.727 23.288 119.063 24.36 119.735 25.128C120.439 25.864 121.383 26.232 122.567 26.232C123.815 26.232 124.759 25.864 125.399 25.128C126.071 24.392 126.407 23.288 126.407 21.816C126.407 19.064 125.127 17.688 122.567 17.688Z" fill="#1A1A1A"/>
</svg>
